<?xml version="1.0" encoding="UTF-8"?><svg id="Layer_2" xmlns="http://www.w3.org/2000/svg" viewBox="0 0 456.61 698.49"><defs><style>.cls-1{fill:#f2cbbb;}.cls-1,.cls-2,.cls-3,.cls-4{stroke-width:0px;}.cls-2{fill:#5e3932;}.cls-3{fill:#fefefe;}.cls-4{fill:#efb6a2;}</style></defs><g id="Layer_1-2"><path class="cls-1" d="M231.75,698.34c-15.33.63-30.46-.78-45.57-3.45-27.36-4.84-52.74-14.91-76.4-29.11-10.35-6.21-20.01-13.72-29.36-21.39-16.15-13.25-29.91-28.81-41.48-46.21-17.41-26.18-29.13-54.77-34.87-85.65-1.93-10.39-3.18-21.06-3.23-31.61C.32,372.47-.1,264.03.02,155.59c.02-16.92,10.99-29.49,26.28-32.84,20.8-4.55,35.98,6.62,40.86,22.12,1.17,3.72,1.51,7.84,1.51,11.78.1,49.32.06,98.64.07,147.96,0,6.94,2.15,10.48,7.26,12.19,4.96,1.66,10.32-1.85,10.7-7.11.16-2.16.07-4.33.07-6.5,0-80.65-.13-161.29.12-241.94.04-13.63,6.11-24.87,18.55-31.4,22.33-11.71,50.23,3.18,50.27,30.24.08,55.15.02,110.3.03,165.46,0,27.99.02,55.98.03,83.98-.9.38-1.95.58-2.67,1.17-10.27,8.54-20.97,16.64-30.64,25.82-18.97,18-33.12,39.48-43.94,63.31-12.05,26.5-17.62,54.39-18.63,83.25-.32,9.2,1.27,18.46,1.82,27.71,1.15,19.35,6.02,37.92,13.2,55.72,9.1,22.55,21.43,43.21,37.67,61.64,14.08,15.98,30.07,29.59,47.82,40.93,18.51,11.82,38.57,20.64,60.15,25.58,3.81.87,7.47,2.44,11.19,3.68Z"/><polygon class="cls-3" points="246.49 654.65 198.91 669.67 149.5 649.64 127.96 598.72 140.48 543.63 99.58 512.75 77.04 450.98 88.76 404.33 115.88 373.64 149.5 373.64 165.52 331.9 189.52 307.41 219.78 307.41 246.49 319.93 262.41 339.13 295.3 307.41 329.92 307.41 356.87 322.44 374.72 339.96 374.72 373.64 410.09 377.53 430.96 394.22 442.64 419.26 442.64 449.31 436.05 477.69 420.11 519.38 374.72 546.05 384.46 578.22 380.38 601.43 372.65 629.53 351.47 655.18 313.6 664.55 258.27 648.26 246.49 654.65"/><path class="cls-4" d="M231.75,698.34c-3.73-1.25-7.38-2.81-11.19-3.68-21.59-4.95-41.65-13.77-60.15-25.58-17.75-11.34-33.74-24.95-47.82-40.93-16.24-18.43-28.57-39.1-37.67-61.64-7.18-17.8-12.05-36.37-13.2-55.72-.55-9.24-2.14-18.5-1.82-27.71,1-28.85,6.58-56.74,18.63-83.25,10.83-23.82,24.97-45.3,43.94-63.31,9.67-9.18,20.37-17.28,30.64-25.82.72-.6,1.77-.79,2.67-1.17,1.42,1.97,2.44,4.69,4.37,5.7,2.36,1.25,6.09,2.26,8.09,1.21,2.45-1.28,4.59-4.6,5.28-7.43.96-3.92.44-8.21.55-12.34,1.29-.25,2.66-.29,3.85-.78,10.07-4.12,19.88-9.07,30.23-12.29,11.27-3.51,23.02-5.43,34.57-8.04.02,9.49-.07,18.98.15,28.47.07,2.92.1,6.64,1.79,8.51,2.18,2.4,6.08,4.66,9.13,4.52,4.15-.19,6.88-3.82,6.92-8.44.09-9.82.05-19.65.09-29.47,0-1.83.09-3.66.13-5.49,23.29-1.62,46.17,1.72,68.98,5.75,6.64,2.04,13.27,4.1,19.91,6.12,1.23.38,2.5.64,3.75.96,12.77,5.07,25.91,9.37,36.08,19.35,2.93,2.88,6.32,5.33,9.63,7.78,16.45,12.17,31.17,26.11,43.62,42.39,4.49,5.87,8.95,11.75,13.43,17.63.09,6.15.24,12.3.25,18.45.03,23.31,0,46.61.01,69.92,0,21.31-1.89,42.5-7.24,63.1-8.65,33.33-23.61,63.59-45.84,90.21-19.97,23.91-43.23,43.6-70.98,57.8-16.87,8.63-34.5,15.25-53.06,19.52-15.75,3.62-31.57,5.86-47.72,5.7ZM263.66,356.33c-4.17-7.92-7.94-15.46-12.06-22.82-8.75-15.64-29.32-23.94-47.53-21.44-17.77,2.44-30.11,11.54-37.32,27.08-5.72,12.33-9.17,25.66-9,39.53.05,3.89-.44,4.81-4.95,4-7.56-1.35-15.88-3.05-23.03-1.23-27.17,6.91-39.96,26.49-40.93,52.17-.84,22.3,3.87,43.54,15,63.15,8.37,14.74,18.65,27.53,34.64,34.59,4.1,1.81,8.35,3.25,12.46,5.05.76.33,1.76,1.71,1.59,2.3-3.1,10.84-6.18,21.69-9.65,32.41-4.62,14.27-5.26,28.35-1.37,43.07,6.81,25.76,32.88,42.7,56.52,43.39,12.14.35,23.42-2.86,34.36-7.17,10.82-4.26,21.66-6.63,33.01-3.81,7.22,1.79,14.16,4.68,21.24,7.02,15.62,5.16,31.35,7.04,47.41,1.82,12.35-4.02,22.94-10.42,30.32-21.42,6.36-9.49,8.75-20.29,10.67-31.33,3.38-19.42,2.4-38.38-5.28-56.7-1.43-3.4-.65-4.44,2.65-5.64,11.21-4.08,21.85-9.64,29.4-18.99,7.15-8.85,13.39-18.52,19.29-28.27,9.79-16.17,15.95-33.26,14.79-52.87-1.01-16.91-5.99-31.25-18.17-43.33-13.33-13.23-28.37-16.21-45.53-9.46-3.29,1.29-3.55.25-3.56-2.56-.03-13.58-2.11-26.79-8.13-39.11-6.66-13.63-16.09-24.22-31.24-28.79-21.19-6.41-44.52.74-55.1,21.3-3.16,6.14-6.94,11.97-10.51,18.06Z"/><path class="cls-1" d="M242.72,275.57c-11.54,2.61-23.3,4.54-34.57,8.04-10.35,3.22-20.15,8.17-30.23,12.29-1.19.49-2.57.53-3.85.78-.1-1.82-.29-3.65-.29-5.47-.02-85.45-.29-170.9.18-256.34C174.07,14.42,188.14.29,208.16,0c19.41-.28,34.45,13.67,34.5,34.22.18,80.45.06,160.9.06,241.35Z"/><path class="cls-1" d="M329.92,279.42c-22.82-4.03-45.7-7.38-68.98-5.75-.06-34.96-.14-69.92-.18-104.88-.03-28.47-.18-56.94.07-85.41.13-14.68,6.82-25.91,20.2-32.31,20.19-9.65,48.64,3.01,48.67,30.07.07,62.93.03,125.86.05,188.79,0,3.16.11,6.32.17,9.48Z"/><path class="cls-1" d="M456.34,373.64c-4.48-5.88-8.94-11.76-13.43-17.63-12.45-16.28-27.17-30.21-43.62-42.39-3.32-2.45-6.7-4.9-9.63-7.78-10.17-9.98-23.31-14.28-36.08-19.35.72-11.08,1.84-22.15,2.06-33.23.41-20.47,16.18-40.43,36.01-45.77,14.9-4.01,28.79-2.07,41.58,6.03,13.39,8.48,21.85,20.98,22.25,36.89.94,37.74.84,75.5,1.13,113.25.03,3.32-.17,6.64-.27,9.96Z"/><path class="cls-2" d="M262.95,474.1c25.39-.99,42.72,11.92,57.69,28.91,13.1,14.88,22.4,32.31,30.14,50.37,8.7,20.3,7.39,41.28.41,61.86-4.86,14.32-16.52,20.37-30.51,22.29-13.58,1.86-26.56-1.49-38.91-6.8-16.76-7.2-33.46-7.59-50.54-1.39-10.6,3.85-21.06,8.78-32.75,7.9-20.32-1.54-39.08-16.13-38.82-39.09.09-7.84,2.15-15.68,3.47-23.49.41-2.44,1.61-4.76,1.98-7.2,3.98-26.02,20.4-44.35,38.45-61.43,8.57-8.11,18.32-14.95,27.33-22.61,9.69-8.22,20.91-10.53,32.05-9.34Z"/><path class="cls-2" d="M348.83,388.31c-1.12,24.4-7.88,46.71-25.06,64.88-3.63,3.84-8,7.3-12.63,9.84-12.23,6.7-22.58,3.17-30.57-8.36-11.72-16.92-11.6-35.55-9.42-54.69,2.36-20.77,11.78-38.75,23.36-55.49,10.24-14.8,33.66-12.72,44.03,3.03,8.17,12.41,10.37,26.25,10.28,40.78Z"/><path class="cls-2" d="M177.13,387.04c1.55-17.61,2.59-32.25,11.62-44.76,4.6-6.37,10.94-8.82,18.67-9.98,16.73-2.52,24.92,7.52,31.6,20.04,12.29,23.07,16.66,47.69,13.21,73.59-1.36,10.2-3.49,20.14-9.34,29.06-7.4,11.27-21.07,12.85-32.08,4.8-15.43-11.3-24.04-26.93-28.68-44.87-2.59-10.03-3.7-20.43-4.99-27.88Z"/><path class="cls-2" d="M189.49,490.43c-.71,9.61-4.14,16.03-6.25,19.29-1.95,3.02-3.78,5.9-7.32,7.79-5.61,2.99-12.42,2-18.83-.28-31.77-11.31-42.87-37.19-47.04-67.48-1.13-8.24-.57-16.97.73-25.24,1.97-12.55,11.18-19.58,22.5-22.96,11.03-3.3,20.71,1.36,28.62,9,9.64,9.31,16.36,20.5,19.28,33.75,5.41,24.55,8.02,32.8,8.26,37.89.18,3.63.11,6.57.04,8.26Z"/><path class="cls-2" d="M415.46,445.82c2.05,14.34-6.08,26.25-12.57,38.45-4.18,7.87-9.48,15.32-15.26,22.12-7.82,9.2-17.79,15.3-30.3,16.28-11.34.89-18.21-6.56-20.62-14.97-3.59-12.52-3.99-25.22-1.35-38,2.05-9.94,6.27-18.94,12.1-27.14,5.96-8.38,11.89-16.83,18.49-24.7,3.53-4.21,8.13-7.74,12.79-10.73,7.17-4.61,16.11-3.28,22.69,2.32,11.07,9.41,14.99,21.59,14.02,36.37Z"/></g></svg>