<svg width="165" height="156" viewBox="0 0 165 156" fill="none" xmlns="http://www.w3.org/2000/svg">
<path d="M82.7229 69.2032C91.4749 68.7032 99.8699 70.2202 106.065 76.7032C112.543 83.4802 114.934 93.3034 121.107 100.364C125.827 105.764 132.551 109.287 136.583 115.216C142.79 124.342 140.67 137.636 133.071 145.64C125.472 153.644 113.528 156.614 102.617 154.947C95.3169 153.831 88.2469 150.847 80.8689 151.099C73.0389 151.37 65.7179 155.278 57.9039 155.849C53.6848 156.157 49.4519 155.48 45.5399 153.87C41.6279 152.26 38.1444 149.761 35.3648 146.572C32.5853 143.383 30.5861 139.591 29.5255 135.496C28.4649 131.401 28.3719 127.115 29.2539 122.978C31.0989 114.326 37.0069 107.114 43.3999 100.998C49.7929 94.8821 56.9079 89.4246 62.2819 82.3976C64.9599 78.8976 67.2109 74.9978 70.5319 72.0978C73.8529 69.1978 78.4909 69.0032 82.7229 69.2032Z" fill="white"/>
<path d="M159.932 50.9871C162.829 54.8986 164.393 59.6371 164.393 64.5047C164.379 69.3431 163.577 74.1466 162.019 78.7274C159.976 85.2944 156.999 91.828 151.835 96.37C146.671 100.912 138.917 103.024 132.713 100.057C126.468 97.0705 123.254 89.6375 123.578 82.7235C123.902 75.8095 127.156 69.3644 130.989 63.5994C133.945 59.1564 137.375 54.885 141.889 52.035C146.403 49.185 151.744 45.7691 159.933 50.9891" fill="white"/>
<path d="M101.212 1.49082C109.875 -1.58418 118.331 3.95944 122.3 9.92344C126.269 15.8874 127.594 23.2459 127.795 30.4059C128.043 35.8435 127.402 41.2846 125.895 46.5152C124.374 51.7634 121.455 56.4993 117.449 60.2154C114.769 62.6034 111.417 64.4468 107.828 64.5338C102.113 64.6728 97.217 60.4256 93.87 55.7916C87.2931 46.5969 84.4172 35.2637 85.814 24.0455C86.3438 19.2671 87.9055 14.6608 90.391 10.5455C92.906 6.42098 96.7087 3.23924 101.212 1.49082Z" fill="white"/>
<path d="M4.464 50.9871C1.56611 54.8977 0.00122291 59.6355 0 64.5028C0.0143763 69.3412 0.816201 74.1446 2.37401 78.7254C4.41701 85.2924 7.394 91.826 12.558 96.368C17.722 100.91 25.476 103.022 31.68 100.056C37.924 97.0685 41.139 89.6355 40.815 82.7215C40.491 75.8075 37.237 69.3625 33.404 63.5975C30.449 59.1545 27.018 54.883 22.504 52.033C17.99 49.183 12.649 45.7671 4.46001 50.9871" fill="white"/>
<path d="M63.1841 1.49082C54.5211 -1.58418 46.0651 3.95944 42.0961 9.92344C38.1271 15.8874 36.8001 23.2459 36.6001 30.4029C36.3501 35.8403 36.9902 41.2814 38.4951 46.5123C40.0158 51.7605 42.9353 56.4964 46.9411 60.2125C49.6211 62.6005 52.9731 64.4439 56.5621 64.5309C62.2771 64.6699 67.1731 60.4227 70.5201 55.7877C77.0975 46.5936 79.9735 35.2605 78.5761 24.0426C78.0464 19.2642 76.4847 14.6579 73.9991 10.5426C71.4851 6.42019 67.6847 3.23958 63.1841 1.49082Z" fill="white"/>
</svg>
