<svg width="50" height="91" viewBox="0 0 50 91" fill="none" xmlns="http://www.w3.org/2000/svg">
<path d="M1.32227 48.7676L41.7974 89.2295C42.6505 90.075 43.8033 90.548 45.0044 90.5459C46.2055 90.5438 47.3569 90.0662 48.207 89.2178C49.0572 88.3693 49.537 87.2196 49.5415 86.0186C49.546 84.8175 49.0752 83.6634 48.2314 82.8086L10.9663 45.5576L48.2261 8.30664C49.0781 7.45344 49.5565 6.29659 49.5557 5.09082C49.5548 3.88506 49.0749 2.72896 48.2217 1.87695C47.3685 1.02495 46.2116 0.547009 45.0059 0.547853C43.8001 0.548696 42.644 1.02766 41.792 1.88086L1.31836 42.3428C0.477232 43.2008 0.0060888 44.3541 0.00683683 45.5557C0.00758485 46.7572 0.48007 47.9106 1.32227 48.7676Z" fill="white"/>
</svg>
