<svg width="97" height="97" viewBox="0 0 97 97" fill="none" xmlns="http://www.w3.org/2000/svg">
<path d="M19.7079 64.124C28.9875 75.2885 40.5459 84.342 53.6083 90.6768C58.5643 93.0248 65.1911 95.8111 72.5751 96.2881C73.0331 96.3081 73.4751 96.3271 73.9291 96.3271C76.2182 96.3955 78.4944 95.9625 80.5985 95.0586C82.7027 94.1546 84.5841 92.8021 86.1103 91.0947C86.1409 91.065 86.1671 91.0308 86.1889 90.9941C87.397 89.6 88.6795 88.2722 90.0302 87.0156C90.9662 86.1156 91.9213 85.1845 92.8373 84.2285C97.0763 79.8105 97.0763 74.197 92.7973 69.917L80.8349 57.9551C79.9503 56.9663 78.8721 56.1698 77.6669 55.6152C76.4617 55.0606 75.1554 54.7601 73.829 54.7314C72.4943 54.7653 71.1801 55.0657 69.9633 55.6152C68.7465 56.1648 67.6518 56.9526 66.744 57.9316L59.619 65.0576C58.962 64.6786 58.2853 64.3405 57.6483 64.0225C56.899 63.6595 56.1679 63.2588 55.4589 62.8223C48.6053 58.3681 42.5219 52.8288 37.4462 46.4219C34.9962 43.4677 32.9486 40.202 31.3564 36.71C33.2274 35.018 34.9783 33.2457 36.6703 31.5107C37.2703 30.8937 37.8839 30.2762 38.5009 29.6582C39.5368 28.7739 40.369 27.6754 40.9394 26.4385C41.5098 25.2016 41.8051 23.8562 41.8051 22.4941C41.8051 21.1321 41.5098 19.7857 40.9394 18.5488C40.369 17.3119 39.5368 16.2134 38.5009 15.3291L32.5702 9.39746C31.8702 8.69746 31.2169 8.02313 30.5399 7.32812C29.2269 5.97412 27.8529 4.58113 26.4999 3.32812C25.5928 2.37947 24.5067 1.62067 23.3041 1.09473C22.1015 0.568785 20.8064 0.286676 19.494 0.264648C16.8192 0.325301 14.2749 1.43296 12.4081 3.34961L4.96524 10.793C2.30519 13.3937 0.684551 16.8751 0.407135 20.585C0.0291352 25.342 0.907248 30.3978 3.17325 36.5088C6.64725 45.9738 11.9019 54.75 19.7079 64.124ZM5.25821 21.0156C5.4502 18.4485 6.57621 16.0402 8.42325 14.2471L15.8232 6.84766C16.7767 5.82796 18.0907 5.22047 19.4853 5.15527C20.1681 5.18819 20.8371 5.35865 21.4525 5.65625C22.068 5.95385 22.6174 6.37291 23.0673 6.8877C24.4013 8.1207 25.6552 9.41411 27.0082 10.7871C27.6852 11.4871 28.382 12.1815 29.078 12.8975L35.0092 18.8281C35.5896 19.2596 36.0608 19.8206 36.3857 20.4668C36.7105 21.113 36.8798 21.8266 36.8798 22.5498C36.8798 23.273 36.7105 23.9866 36.3857 24.6328C36.0608 25.279 35.5896 25.84 35.0092 26.2715C34.3922 26.8885 33.7751 27.5256 33.1581 28.1426C31.3071 30.0136 29.5759 31.7856 27.6649 33.4766L27.5653 33.5762C26.9583 34.116 26.5352 34.8327 26.3559 35.625C26.1765 36.4173 26.25 37.2455 26.5653 37.9941C26.5853 38.0551 26.6049 38.0943 26.6249 38.1543C28.3995 42.2562 30.7523 46.0832 33.6112 49.5186C39.0075 56.3543 45.4894 62.2574 52.7982 66.9932C53.6481 67.5166 54.525 67.9956 55.4252 68.4268C56.1745 68.7877 56.905 69.1855 57.6142 69.6201C57.6942 69.6601 57.7539 69.7002 57.8329 69.7402C58.4266 70.0608 59.0894 70.2324 59.7641 70.2402C60.3234 70.2225 60.8737 70.0938 61.3827 69.8613C61.8918 69.6289 62.3492 69.2978 62.7289 68.8867L70.1732 61.4434C70.6334 60.9224 71.1922 60.4973 71.8173 60.1934C72.4424 59.8894 73.1214 59.7121 73.8153 59.6719C74.4919 59.7129 75.1531 59.8918 75.7587 60.1963C76.3643 60.5007 76.9018 60.9248 77.3383 61.4434L89.3383 73.4238C91.7263 75.8128 91.7062 78.4008 89.2782 80.9238C88.4422 81.8238 87.5663 82.6763 86.6313 83.5713C85.1704 84.9376 83.7817 86.3795 82.4711 87.8906C81.4008 89.0838 80.0809 90.0262 78.6054 90.6523C77.1299 91.2785 75.5348 91.573 73.933 91.5137C73.594 91.5137 73.2333 91.4926 72.8983 91.4736C66.3703 91.0556 60.2981 88.5059 55.7411 86.3369C43.3061 80.3108 32.305 71.6929 23.4779 61.0615C16.0549 52.1245 11.0593 43.8056 7.75528 34.8896C5.70828 29.4136 4.9363 25.0156 5.2543 21.0146L5.25821 21.0156Z" fill="white"/>
</svg>
