<svg width="86" height="42" viewBox="0 0 86 42" fill="none" xmlns="http://www.w3.org/2000/svg">
<path d="M85.0147 18.4502C85.0137 18.4492 85.0129 18.448 85.0117 18.447L67.4583 0.978239C66.1432 -0.330405 64.0163 -0.325535 62.7073 0.98966C61.3985 2.30469 61.4035 4.43167 62.7185 5.74049L74.5039 17.4687H3.35938C1.50399 17.4687 0 18.9727 0 20.8281C0 22.6835 1.50399 24.1875 3.35938 24.1875H74.5037L62.7187 35.9157C61.4037 37.2246 61.3986 39.3515 62.7074 40.6666C64.0164 41.9819 66.1436 41.9865 67.4584 40.678L85.0118 23.2092C85.0129 23.2082 85.0137 23.2071 85.0149 23.206C86.3306 21.8929 86.3264 19.759 85.0147 18.4502Z" fill="#583A32"/>
</svg>
