<svg width="86" height="42" viewBox="0 0 86 42" fill="none" xmlns="http://www.w3.org/2000/svg">
<path d="M85.0147 18.6221C85.0137 18.621 85.0129 18.6199 85.0117 18.6189L67.4583 1.15011C66.1432 -0.15853 64.0163 -0.15366 62.7073 1.16153C61.3985 2.47656 61.4035 4.60355 62.7185 5.91236L74.5039 17.6406H3.35938C1.50399 17.6406 0 19.1446 0 21C0 22.8554 1.50399 24.3594 3.35938 24.3594H74.5037L62.7187 36.0876C61.4037 37.3964 61.3986 39.5234 62.7074 40.8384C64.0164 42.1538 66.1436 42.1583 67.4584 40.8499L85.0118 23.3811C85.0129 23.3801 85.0137 23.3789 85.0149 23.3779C86.3306 22.0647 86.3264 19.9309 85.0147 18.6221Z" fill="white" fill-opacity="0.5"/>
</svg>
