<svg width="26" height="26" viewBox="0 0 26 26" fill="none" xmlns="http://www.w3.org/2000/svg">
<path d="M25.3721 23.8945C25.3721 24.3152 25.2056 24.7182 24.9082 25.0156C24.6108 25.3131 24.2068 25.4805 23.7861 25.4805H1.58691C1.16628 25.4805 0.762276 25.3131 0.464844 25.0156C0.167411 24.7182 0 24.3152 0 23.8945C0 23.4739 0.167411 23.0699 0.464844 22.7725C0.762276 22.475 1.16628 22.3086 1.58691 22.3086H23.7861C24.2068 22.3086 24.6108 22.475 24.9082 22.7725C25.2056 23.0699 25.3721 23.4739 25.3721 23.8945ZM11.5635 18.8701C11.8612 19.1671 12.2641 19.334 12.6846 19.334C13.1051 19.334 13.5089 19.1671 13.8066 18.8701L19.4258 13.251C19.7134 12.9516 19.8714 12.5519 19.8672 12.1367C19.863 11.7216 19.697 11.3248 19.4033 11.0312C19.1097 10.7377 18.712 10.5704 18.2969 10.5664C17.8817 10.5624 17.4819 10.722 17.1826 11.0098L14.2705 13.9189V1.69043C14.2705 1.2698 14.1031 0.866769 13.8057 0.569336C13.5082 0.271903 13.1052 0.104492 12.6846 0.104492C12.2639 0.104492 11.8599 0.271903 11.5625 0.569336C11.2651 0.866769 11.0986 1.2698 11.0986 1.69043V13.9189L8.1875 11.0098C7.88822 10.722 7.4884 10.5624 7.07324 10.5664C6.65809 10.5704 6.26044 10.7377 5.9668 11.0312C5.67316 11.3248 5.50617 11.7216 5.50195 12.1367C5.49774 12.5519 5.65672 12.9516 5.94434 13.251L11.5635 18.8701Z" fill="white"/>
</svg>
